<svg width="14" height="14" viewBox="0 0 14 14" fill="none" xmlns="http://www.w3.org/2000/svg">
<path d="M6.99994 8.16666H7.58327C8.22494 8.16666 8.74994 7.64166 8.74994 6.99999V1.16666H3.49994C2.62494 1.16666 1.86078 1.65082 1.46411 2.36248" stroke="#09C792" stroke-linecap="round" stroke-linejoin="round"/>
<path d="M1.16675 9.91666C1.16675 10.885 1.94841 11.6667 2.91675 11.6667H3.50008C3.50008 11.025 4.02508 10.5 4.66675 10.5C5.30842 10.5 5.83342 11.025 5.83342 11.6667H8.16675C8.16675 11.025 8.69175 10.5 9.33342 10.5C9.97508 10.5 10.5001 11.025 10.5001 11.6667H11.0834C12.0517 11.6667 12.8334 10.885 12.8334 9.91666V8.16666H11.0834C10.7626 8.16666 10.5001 7.90416 10.5001 7.58332V5.83332C10.5001 5.51249 10.7626 5.24999 11.0834 5.24999H11.8359L10.8384 3.50583C10.6284 3.14416 10.2434 2.91666 9.82343 2.91666H8.75008V6.99999C8.75008 7.64166 8.22508 8.16666 7.58342 8.16666H7.00008" stroke="#09C792" stroke-linecap="round" stroke-linejoin="round"/>
<path d="M4.66667 12.8333C5.311 12.8333 5.83333 12.311 5.83333 11.6667C5.83333 11.0223 5.311 10.5 4.66667 10.5C4.02233 10.5 3.5 11.0223 3.5 11.6667C3.5 12.311 4.02233 12.8333 4.66667 12.8333Z" stroke="#09C792" stroke-linecap="round" stroke-linejoin="round"/>
<path d="M9.33341 12.8333C9.97775 12.8333 10.5001 12.311 10.5001 11.6667C10.5001 11.0223 9.97775 10.5 9.33341 10.5C8.68908 10.5 8.16675 11.0223 8.16675 11.6667C8.16675 12.311 8.68908 12.8333 9.33341 12.8333Z" stroke="#09C792" stroke-linecap="round" stroke-linejoin="round"/>
<path d="M12.8333 7V8.16667H11.0833C10.7625 8.16667 10.5 7.90417 10.5 7.58333V5.83333C10.5 5.5125 10.7625 5.25 11.0833 5.25H11.8358L12.8333 7Z" stroke="#09C792" stroke-linecap="round" stroke-linejoin="round"/>
<path d="M1.16675 4.66666H4.66675" stroke="#09C792" stroke-linecap="round" stroke-linejoin="round"/>
<path d="M1.16675 6.41666H3.50008" stroke="#09C792" stroke-linecap="round" stroke-linejoin="round"/>
<path d="M1.16675 8.16666H2.33341" stroke="#09C792" stroke-linecap="round" stroke-linejoin="round"/>
</svg>
