<svg width="27" height="22" viewBox="0 0 27 22" fill="none" xmlns="http://www.w3.org/2000/svg">
<path d="M8.00239 15.6358C8.00239 16.2514 8.32458 16.8253 8.84487 17.1343L16.6587 21.7695C16.9189 21.924 17.21 22 17.5012 22C17.7924 22 18.0835 21.924 18.3437 21.7695L26.1575 17.1343C26.6778 16.8277 27 16.2514 27 15.6358V6.36542C27 5.74985 26.6778 5.17597 26.1575 4.86695L18.3413 0.23176C17.821 -0.0772532 17.1766 -0.0772532 16.6587 0.23176L8.84248 4.86695C8.3222 5.17597 8 5.74985 8 6.36542V15.6383L8.00239 15.6358ZM25.5394 15.6358C25.5394 15.7192 25.4964 15.7952 25.4272 15.8369L18.2291 20.1067V11.3832C18.3532 11.3391 18.4773 11.2851 18.5943 11.2164L22.4749 8.91355L25.5418 7.09381V15.6358H25.5394ZM17.3866 1.52667C17.4224 1.50705 17.4606 1.49479 17.4988 1.49479C17.537 1.49479 17.5776 1.5046 17.611 1.52667L24.8091 5.79644L22.1146 7.39546L14.8162 3.04966L17.3866 1.52422V1.52667ZM13.3604 3.91539L20.6587 8.26119L17.864 9.91907C17.6396 10.0515 17.3604 10.0515 17.136 9.91907L10.1885 5.7989L13.3628 3.91539H13.3604ZM9.45823 7.09626L16.4057 11.2189C16.5227 11.2876 16.6444 11.3415 16.7709 11.3857V20.1091L9.57279 15.8394C9.50358 15.7977 9.46062 15.7216 9.46062 15.6383V7.09626H9.45823Z" fill="#0B98DA"/>
<path d="M6 9L4 9" stroke="#0B98DA" stroke-width="1.5" stroke-linecap="round"/>
<path d="M6 12L1 12" stroke="#0B98DA" stroke-width="1.5" stroke-linecap="round"/>
<path d="M6 15L3 15" stroke="#0B98DA" stroke-width="1.5" stroke-linecap="round"/>
</svg>
