<svg width="22" height="22" viewBox="0 0 22 22" fill="none" xmlns="http://www.w3.org/2000/svg">
<path d="M11 2.69617C9.3605 2.69691 7.75787 3.18298 6.39415 4.09313C5.03042 5.00327 3.96665 6.29676 3.33691 7.81054C2.70717 9.32432 2.53965 10.9906 2.85546 12.5995C3.17127 14.2083 3.95627 15.6877 5.11153 16.8511C6.66589 18.398 8.76962 19.2665 10.9626 19.2665C13.1556 19.2665 15.2593 18.398 16.8137 16.8511C17.9645 15.6922 18.7481 14.2197 19.0664 12.6178C19.3847 11.0158 19.2235 9.35563 18.603 7.84485C17.9825 6.33406 16.9302 5.03981 15.5779 4.12402C14.2256 3.20823 12.6332 2.71156 11 2.69617ZM17.8996 11C17.9022 12.5874 17.3528 14.1263 16.3456 15.3532L13.7243 12.7319C14.0074 12.2953 14.1801 11.7964 14.2276 11.2782C14.2752 10.7601 14.196 10.2381 13.9971 9.75727C13.7981 9.27645 13.4853 8.85118 13.0855 8.51808C12.6857 8.18498 12.211 7.95403 11.7022 7.8451V4.10042C13.4062 4.27893 14.9833 5.08338 16.1282 6.35799C17.2731 7.6326 17.9043 9.28669 17.8996 11ZM9.71749 12.3106C9.44412 12.0536 9.25429 11.7204 9.1726 11.3541C9.09092 10.9879 9.12116 10.6056 9.2594 10.2568C9.39764 9.90792 9.6375 9.60867 9.94787 9.39781C10.2582 9.18695 10.6248 9.07421 11 9.07421C11.3753 9.07421 11.7418 9.18695 12.0522 9.39781C12.3626 9.60867 12.6024 9.90792 12.7407 10.2568C12.8789 10.6056 12.9092 10.9879 12.8275 11.3541C12.7458 11.7204 12.556 12.0536 12.2826 12.3106C11.9354 12.6371 11.4767 12.8189 11 12.8189C10.5234 12.8189 10.0647 12.6371 9.71749 12.3106ZM10.2979 4.12851V7.87319C9.78909 7.98212 9.31435 8.21307 8.91458 8.54617C8.51481 8.87927 8.20198 9.30453 8.00302 9.78535C7.80406 10.2662 7.72493 10.7881 7.77245 11.3063C7.81997 11.8245 7.9927 12.3234 8.27579 12.76L5.65451 15.3813C4.64114 14.1469 4.09139 12.597 4.10047 11C4.10273 9.29153 4.73707 7.64433 5.88131 6.37564C7.02554 5.10695 8.59875 4.30652 10.2979 4.12851ZM6.64685 16.3455L9.25877 13.7336C9.40053 13.8177 9.54749 13.8928 9.69877 13.9583L9.89536 14.0332C9.9904 14.0668 10.0873 14.095 10.1856 14.1174L10.5132 14.1923H10.6443C10.766 14.1923 10.8783 14.1923 11 14.1923C11.1217 14.1923 11.2341 14.1923 11.3558 14.1923H11.4869L11.8145 14.1174C11.9128 14.095 12.0097 14.0668 12.1047 14.0332L12.3013 13.9583C12.4526 13.8928 12.5996 13.8177 12.7413 13.7336L15.3532 16.3455C14.1253 17.351 12.5871 17.9003 11 17.9003C9.41297 17.9003 7.87482 17.351 6.64685 16.3455Z" fill="#0B98DA"/>
<path d="M11 0C8.82441 0 6.69767 0.645139 4.88873 1.85383C3.07979 3.06253 1.66989 4.78049 0.83733 6.79048C0.00476611 8.80047 -0.213071 11.0122 0.211367 13.146C0.635804 15.2798 1.68345 17.2398 3.22183 18.7782C4.76021 20.3165 6.72022 21.3642 8.85401 21.7886C10.9878 22.2131 13.1995 21.9952 15.2095 21.1627C17.2195 20.3301 18.9375 18.9202 20.1462 17.1113C21.3549 15.3023 22 13.1756 22 11C21.9975 8.08338 20.8378 5.28692 18.7754 3.22456C16.7131 1.1622 13.9166 0.00247907 11 0ZM11 20.5957C9.10214 20.5957 7.2469 20.033 5.66889 18.9786C4.09088 17.9242 2.86097 16.4255 2.13469 14.6721C1.40841 12.9187 1.21839 10.9894 1.58864 9.12796C1.95889 7.26657 2.8728 5.55677 4.21479 4.21478C5.55678 2.87279 7.26657 1.95889 9.12797 1.58863C10.9894 1.21838 12.9187 1.40841 14.6721 2.13469C16.4255 2.86097 17.9242 4.09088 18.9786 5.66889C20.033 7.2469 20.5957 9.10214 20.5957 11C20.5933 13.5442 19.5815 15.9835 17.7825 17.7825C15.9835 19.5815 13.5442 20.5933 11 20.5957Z" fill="#0B98DA"/>
</svg>
