<svg width="22" height="19" viewBox="0 0 22 19" fill="none" xmlns="http://www.w3.org/2000/svg">
<path d="M21.9121 11.4198C21.4493 9.56873 20.0148 8.13415 18.1868 7.67138L14.5541 6.76898L12.2402 1.44713C12.1014 1.1232 11.8237 0.868673 11.4767 0.752981L9.2091 0.0588272C8.79261 -0.0800035 8.35298 0.0356888 8.02904 0.31335C7.7051 0.591012 7.54314 1.03064 7.63569 1.47027L8.3067 5.2187L4.76652 4.33944L4.00295 2.41895C3.86412 2.07187 3.58646 1.81735 3.21625 1.70166L1.61969 1.21575C1.24948 1.10006 0.832984 1.16947 0.509046 1.40086C0.185108 1.63224 0 2.00246 0 2.39581L0.0462769 6.81526C0.0694153 8.08787 0.879261 9.22165 2.1056 9.59187L18.6033 14.6823C18.8578 14.7517 19.1124 14.798 19.39 14.798C19.9222 14.798 20.4544 14.6361 20.9172 14.3121C21.7964 13.6874 22.1898 12.5305 21.9121 11.4198ZM20.0148 13.0164C19.7371 13.2246 19.39 13.2709 19.0661 13.1783L2.56837 8.08787C1.98991 7.90276 1.61969 7.39372 1.59655 6.79212V2.83544L2.61465 3.15938L3.47077 5.31126C3.56332 5.54264 3.77157 5.72775 4.00295 5.77403L9.04714 7.00036C9.30166 7.06978 9.57932 7.00036 9.76443 6.81526C9.94953 6.63015 10.0421 6.37563 9.99581 6.09796L9.2091 1.67852L10.8519 2.18757L13.2583 7.71765C13.3509 7.94904 13.5591 8.11101 13.7905 8.15729L17.7935 9.15224C19.0892 9.47618 20.0842 10.4711 20.385 11.7669C20.5238 12.2759 20.3618 12.785 20.0148 13.0164Z" fill="#0B98DA"/>
<path d="M20.1768 17.0656H0.809901C0.37027 17.0656 0.0231934 17.4127 0.0231934 17.8523C0.0231934 18.292 0.37027 18.639 0.809901 18.639H20.1768C20.6164 18.639 20.9635 18.292 20.9635 17.8523C20.9635 17.4127 20.6164 17.0656 20.1768 17.0656Z" fill="#0B98DA"/>
</svg>
