<svg width="27" height="27" viewBox="0 0 27 27" fill="none" xmlns="http://www.w3.org/2000/svg">
<path d="M23.7531 8.57141C22.1429 7.54776 20.1148 7.49531 18.4706 8.41844L15.2149 10.2655L9.87249 7.9997C9.54875 7.8604 9.17214 7.86703 8.8408 8.02213L6.71848 9.08019C6.32087 9.26631 6.08173 9.65293 6.03802 10.0773C5.99432 10.5017 6.17959 10.9321 6.54943 11.1871L9.61716 13.4433L6.44454 15.2434L4.56841 14.3765C4.22874 14.2205 3.85213 14.2271 3.504 14.3981L2.01167 15.1451C1.66355 15.3162 1.40933 15.6533 1.33375 16.0442C1.25818 16.435 1.37888 16.8309 1.64974 17.1162L4.72649 20.2891C5.61958 21.196 6.98755 21.4605 8.13176 20.8845L23.6003 13.2156C23.8327 13.0907 24.0491 12.949 24.2505 12.7578C24.6364 12.3913 24.9108 11.9074 25.0233 11.3539C25.2307 10.2954 24.7193 9.18559 23.7531 8.57141ZM23.4766 11.0356C23.4187 11.3779 23.1989 11.6504 22.9002 11.8063L7.43169 19.4752C6.88476 19.7393 6.26577 19.6251 5.83474 19.2048L3.1102 16.3356L4.07153 15.8694L6.17411 16.8404C6.40056 16.9444 6.67903 16.9352 6.87868 16.8095L11.3809 14.2254C11.6133 14.1004 11.7668 13.8589 11.7736 13.5972C11.7804 13.3355 11.6722 13.0872 11.4475 12.9177L7.83379 10.2547L9.37561 9.4926L14.9286 11.8457C15.155 11.9498 15.4176 11.9238 15.6172 11.7981L19.2051 9.76314C20.3678 9.1058 21.7744 9.14218 22.8847 9.87466C23.3359 10.1482 23.569 10.6289 23.4766 11.0356Z" fill="#0B98DA"/>
<path d="M23.1592 23.3044H3.79232C3.35269 23.3044 3.00562 23.6515 3.00562 24.0911C3.00562 24.5307 3.35269 24.8778 3.79232 24.8778H23.1592C23.5988 24.8778 23.9459 24.5307 23.9459 24.0911C23.9459 23.6515 23.5988 23.3044 23.1592 23.3044Z" fill="#0B98DA"/>
</svg>
