<svg width="27" height="24" viewBox="0 0 27 24" fill="none" xmlns="http://www.w3.org/2000/svg">
<path d="M9.62759 0.950636L9.6276 0.950691C9.64684 0.949788 9.66612 0.94977 9.68536 0.950636H17.7895C17.9563 0.950653 18.1162 1.01692 18.2342 1.13486C18.3521 1.2528 18.4184 1.41276 18.4184 1.57957V9.05567H21.8421C22.0089 9.05569 22.1689 9.12195 22.2868 9.23989C22.4048 9.35783 22.471 9.5178 22.4711 9.6846V17.1607H25.8947C26.0615 17.1607 26.2215 17.227 26.3395 17.3449C26.4574 17.4629 26.5237 17.6228 26.5237 17.7896V22.4211C26.5237 22.5879 26.4574 22.7478 26.3395 22.8658C26.2215 22.9837 26.0615 23.05 25.8947 23.05H23.5789C23.4121 23.05 23.2522 22.9837 23.1342 22.8658C23.0163 22.7478 22.95 22.5879 22.95 22.4211V20.7343H14.8952H14.8947V20.6843C14.818 20.6853 14.7419 20.6711 14.6707 20.6425C14.5995 20.6139 14.5348 20.5714 14.4801 20.5176C14.4255 20.4637 14.3822 20.3995 14.3526 20.3288C14.323 20.258 14.3077 20.182 14.3077 20.1053C14.3077 20.0286 14.323 19.9527 14.3526 19.8819C14.3822 19.8111 14.4255 19.747 14.4801 19.6931C14.5348 19.6392 14.5995 19.5968 14.6707 19.5682C14.7419 19.5395 14.818 19.5254 14.8947 19.5264L9.62759 0.950636ZM9.62759 0.950636L9.62525 0.950857C9.46887 0.965595 9.32366 1.03831 9.21818 1.15469C9.11276 1.27103 9.05465 1.42258 9.05527 1.57957L9.62759 0.950636ZM23.579 19.4764H14.8952L12.579 20.6843C12.6557 20.6853 12.7318 20.6711 12.803 20.6425C12.8742 20.6139 12.9389 20.5714 12.9935 20.5176C13.0482 20.4637 13.0915 20.3995 13.1211 20.3288C13.1507 20.258 13.166 20.182 13.166 20.1053C13.166 20.0286 13.1507 19.9527 13.1211 19.8819C13.0915 19.8111 13.0482 19.747 12.9935 19.6931C12.9389 19.6392 12.8742 19.5968 12.803 19.5682C12.7318 19.5395 12.6557 19.5254 12.579 19.5264V19.4764H12.5785H3.89474C3.72794 19.4764 3.56797 19.5427 3.45002 19.6606C3.33207 19.7786 3.26581 19.9386 3.26579 20.1054V21.7921H2.2079V18.4185H25.2658V21.7921H24.2079V20.1054C24.2079 19.9386 24.1416 19.7786 24.0237 19.6606C23.9057 19.5427 23.7458 19.4764 23.579 19.4764ZM4.52369 20.7343H12.5785L1.52468 17.2107C1.38073 17.2243 1.24707 17.2912 1.14997 17.3983C1.05288 17.5055 0.999385 17.645 1.00001 17.7896H0.950005V17.7897V22.4211C0.950017 22.5879 1.01628 22.7478 1.13423 22.8658C1.25218 22.9837 1.41215 23.05 1.57895 23.05H3.89474C4.06155 23.05 4.22152 22.9837 4.33946 22.8658C4.45741 22.7478 4.52368 22.5879 4.52369 22.4211V20.7343ZM10.3132 2.2085H17.1605V9.05567H10.3132V2.2085ZM13.1079 10.3135V17.1607H6.26053V10.3135H13.1079ZM21.2132 10.3135V17.1607H14.3658V10.3135H21.2132Z" fill="#0B98DA" stroke="#0B98DA" stroke-width="0.1"/>
</svg>
