<svg width="24" height="22" viewBox="0 0 24 22" fill="none" xmlns="http://www.w3.org/2000/svg">
<path d="M0.00238669 15.6358C0.00238669 16.2514 0.324582 16.8253 0.844869 17.1343L8.65871 21.7695C8.91885 21.924 9.21002 22 9.50119 22C9.79236 22 10.0835 21.924 10.3437 21.7695L18.1575 17.1343C18.6778 16.8277 19 16.2514 19 15.6358V6.36542C19 5.74985 18.6778 5.17597 18.1575 4.86695L10.3413 0.23176C9.821 -0.0772532 9.17661 -0.0772532 8.65871 0.23176L0.842482 4.86695C0.322196 5.17597 0 5.74985 0 6.36542V15.6383L0.00238669 15.6358ZM17.5394 15.6358C17.5394 15.7192 17.4964 15.7952 17.4272 15.8369L10.2291 20.1067V11.3832C10.3532 11.3391 10.4773 11.2851 10.5943 11.2164L14.4749 8.91355L17.5418 7.09381V15.6358H17.5394ZM9.38663 1.52667C9.42243 1.50705 9.46062 1.49479 9.49881 1.49479C9.53699 1.49479 9.57757 1.5046 9.61098 1.52667L16.8091 5.79644L14.1146 7.39546L6.81623 3.04966L9.38663 1.52422V1.52667ZM5.36038 3.91539L12.6587 8.26119L9.86396 9.91907C9.63962 10.0515 9.36038 10.0515 9.13604 9.91907L2.18854 5.7989L5.36277 3.91539H5.36038ZM1.45823 7.09626L8.40573 11.2189C8.52267 11.2876 8.64439 11.3415 8.77088 11.3857V20.1091L1.57279 15.8394C1.50358 15.7977 1.46062 15.7216 1.46062 15.6383V7.09626H1.45823Z" fill="#0B98DA"/>
<circle cx="18" cy="16" r="4.75" fill="white" stroke="#0B98DA" stroke-width="1.5"/>
<path d="M16 16L17.3333 17.5L20 14.5" stroke="#0B98DA" stroke-width="1.5" stroke-linecap="round"/>
</svg>
