<svg width="22" height="22" viewBox="0 0 22 22" fill="none" xmlns="http://www.w3.org/2000/svg">
<path d="M21.6319 12.4638L21.6361 12.4559L12.6668 7.67228C13.0772 7.36187 13.3916 6.94177 13.5736 6.46042C13.7556 5.97908 13.7978 5.4561 13.6955 4.95177C13.5931 4.44745 13.3503 3.98233 12.995 3.61004C12.6397 3.23775 12.1865 2.97345 11.6875 2.84763V1.375H21.3125C21.4948 1.375 21.6697 1.30257 21.7986 1.17364C21.9276 1.0447 22 0.869836 22 0.6875C22 0.505164 21.9276 0.330295 21.7986 0.201364C21.6697 0.0724328 21.4948 0 21.3125 0H0.6875C0.505164 0 0.330295 0.0724328 0.201364 0.201364C0.0724328 0.330295 2.32516e-08 0.505164 2.32516e-08 0.6875C2.32516e-08 0.869836 0.0724328 1.0447 0.201364 1.17364C0.330295 1.30257 0.505164 1.375 0.6875 1.375H10.3125V2.84763C9.81351 2.97345 9.36024 3.23775 9.00497 3.61004C8.64969 3.98233 8.40687 4.44745 8.30451 4.95178C8.20214 5.4561 8.24441 5.97909 8.42642 6.46044C8.60844 6.94178 8.92279 7.36188 9.33324 7.67229L0.363894 12.4559L0.368129 12.4639C0.258084 12.5207 0.165639 12.6065 0.100765 12.712C0.0358913 12.8175 0.00105018 12.9387 2.32516e-08 13.0625V21.3125C-2.34614e-05 21.4028 0.0177433 21.4922 0.0522851 21.5756C0.0868269 21.659 0.137467 21.7348 0.201312 21.7987C0.265157 21.8625 0.340955 21.9132 0.424377 21.9477C0.507799 21.9823 0.59721 22 0.6875 22H21.3125C21.4028 22 21.4922 21.9823 21.5756 21.9477C21.659 21.9132 21.7348 21.8625 21.7987 21.7987C21.8625 21.7348 21.9132 21.659 21.9477 21.5756C21.9823 21.4922 22 21.4028 22 21.3125V13.0625C21.999 12.9387 21.9641 12.8174 21.8993 12.7119C21.8344 12.6064 21.7419 12.5206 21.6319 12.4638ZM11 4.125C11.3647 4.1249 11.7144 4.26966 11.9724 4.52745C12.2303 4.78523 12.3752 5.13492 12.3753 5.49958C12.3754 5.86424 12.2307 6.21401 11.9729 6.47193C11.7151 6.72986 11.3654 6.87482 11.0008 6.87492H10.9992C10.6346 6.87482 10.2849 6.72986 10.0271 6.47193C9.76933 6.21401 9.62456 5.86424 9.62466 5.49958C9.62476 5.13492 9.76972 4.78523 10.0276 4.52745C10.2856 4.26966 10.6353 4.1249 11 4.125ZM18.5625 12.375H3.43754L11 8.34164L18.5625 12.375ZM20.625 20.625H1.375V13.75H20.625V20.625Z" fill="#0B98DA"/>
<path d="M16.5 19.25C16.5903 19.25 16.6797 19.2323 16.7631 19.1977C16.8465 19.1632 16.9223 19.1125 16.9862 19.0487C17.05 18.9848 17.1007 18.909 17.1352 18.8256C17.1698 18.7422 17.1875 18.6528 17.1875 18.5625V15.8125C17.1875 15.6302 17.1151 15.4553 16.9861 15.3264C16.8572 15.1974 16.6823 15.125 16.5 15.125C16.3177 15.125 16.1428 15.1974 16.0139 15.3264C15.8849 15.4553 15.8125 15.6302 15.8125 15.8125V18.5625C15.8125 18.6528 15.8302 18.7422 15.8648 18.8256C15.8993 18.909 15.95 18.9848 16.0138 19.0487C16.0777 19.1125 16.1535 19.1632 16.2369 19.1977C16.3203 19.2323 16.4097 19.25 16.5 19.25Z" fill="#0B98DA"/>
<path d="M13.75 19.25C13.8403 19.25 13.9297 19.2323 14.0131 19.1977C14.0965 19.1632 14.1723 19.1125 14.2362 19.0487C14.3 18.9848 14.3507 18.909 14.3852 18.8256C14.4198 18.7422 14.4375 18.6528 14.4375 18.5625V15.8125C14.4375 15.6302 14.3651 15.4553 14.2361 15.3264C14.1072 15.1974 13.9323 15.125 13.75 15.125C13.5677 15.125 13.3928 15.1974 13.2639 15.3264C13.1349 15.4553 13.0625 15.6302 13.0625 15.8125V18.5625C13.0625 18.6528 13.0802 18.7422 13.1148 18.8256C13.1493 18.909 13.2 18.9848 13.2638 19.0487C13.3277 19.1125 13.4035 19.1632 13.4869 19.1977C13.5703 19.2323 13.6597 19.25 13.75 19.25Z" fill="#0B98DA"/>
<path d="M11 19.25C11.0903 19.25 11.1797 19.2323 11.2631 19.1977C11.3465 19.1632 11.4223 19.1125 11.4862 19.0487C11.55 18.9848 11.6007 18.909 11.6352 18.8256C11.6698 18.7422 11.6875 18.6528 11.6875 18.5625V15.8125C11.6875 15.6302 11.6151 15.4553 11.4861 15.3264C11.3572 15.1974 11.1823 15.125 11 15.125C10.8177 15.125 10.6428 15.1974 10.5139 15.3264C10.3849 15.4553 10.3125 15.6302 10.3125 15.8125V18.5625C10.3125 18.6528 10.3302 18.7422 10.3648 18.8256C10.3993 18.909 10.45 18.9848 10.5138 19.0487C10.5777 19.1125 10.6535 19.1632 10.7369 19.1977C10.8203 19.2323 10.9097 19.25 11 19.25Z" fill="#0B98DA"/>
<path d="M8.25 19.25C8.34029 19.25 8.4297 19.2323 8.51312 19.1977C8.59654 19.1632 8.67234 19.1125 8.73619 19.0487C8.80003 18.9848 8.85067 18.909 8.88522 18.8256C8.91976 18.7422 8.93752 18.6528 8.9375 18.5625V15.8125C8.9375 15.6302 8.86507 15.4553 8.73614 15.3264C8.6072 15.1974 8.43234 15.125 8.25 15.125C8.06766 15.125 7.8928 15.1974 7.76386 15.3264C7.63493 15.4553 7.5625 15.6302 7.5625 15.8125V18.5625C7.56248 18.6528 7.58024 18.7422 7.61478 18.8256C7.64933 18.909 7.69997 18.9848 7.76381 19.0487C7.82766 19.1125 7.90346 19.1632 7.98688 19.1977C8.0703 19.2323 8.15971 19.25 8.25 19.25Z" fill="#0B98DA"/>
<path d="M5.5 19.25C5.59029 19.25 5.6797 19.2323 5.76312 19.1977C5.84654 19.1632 5.92234 19.1125 5.98619 19.0487C6.05003 18.9848 6.10067 18.909 6.13522 18.8256C6.16976 18.7422 6.18752 18.6528 6.1875 18.5625V15.8125C6.1875 15.6302 6.11507 15.4553 5.98614 15.3264C5.8572 15.1974 5.68234 15.125 5.5 15.125C5.31766 15.125 5.1428 15.1974 5.01386 15.3264C4.88493 15.4553 4.8125 15.6302 4.8125 15.8125V18.5625C4.81248 18.6528 4.83024 18.7422 4.86478 18.8256C4.89933 18.909 4.94997 18.9848 5.01381 19.0487C5.07766 19.1125 5.15346 19.1632 5.23688 19.1977C5.3203 19.2323 5.40971 19.25 5.5 19.25Z" fill="#0B98DA"/>
</svg>
